<svg version="1.1" viewBox="0.0 0.0 100.0 100.0" fill="none" stroke="none" stroke-linecap="square" stroke-miterlimit="10" xmlns:xlink="http://www.w3.org/1999/xlink" xmlns="http://www.w3.org/2000/svg"><clipPath id="p.0"><path d="m0 0l100.0 0l0 100.0l-100.0 0l0 -100.0z" clip-rule="nonzero"/></clipPath><g clip-path="url(#p.0)"><path fill="#f1c232" d="m0 0l100.0 0l0 100.0l-100.0 0z" fill-rule="evenodd"/><g filter="url(#shadowFilter-p.1)"><use xlink:href="#p.1" transform="matrix(1.0 0.0 0.0 1.0 0.0 2.0)"/></g><defs><filter id="shadowFilter-p.1" filterUnits="userSpaceOnUse"><feGaussianBlur in="SourceAlpha" stdDeviation="2.0" result="blur"/><feComponentTransfer in="blur" color-interpolation-filters="sRGB"><feFuncR type="linear" slope="0" intercept="1.0"/><feFuncG type="linear" slope="0" intercept="1.0"/><feFuncB type="linear" slope="0" intercept="1.0"/><feFuncA type="linear" slope="0.5" intercept="0"/></feComponentTransfer></filter></defs><g id="p.1"><path fill="#000000" fill-opacity="0.0" d="m15.629496 8.478815l68.74101 0l0 83.04252l-68.74101 0z" fill-rule="evenodd"/><path fill="#000000" d="m28.566996 73.47881l0 -33.734375l-10.734375 0l0 -7.796873l31.062502 0l0 7.796873l-11.40625 0l0 33.734375l-8.921877 0z" fill-rule="nonzero"/></g><g filter="url(#shadowFilter-p.2)"><use xlink:href="#p.2" transform="matrix(1.0 0.0 0.0 1.0 0.0 2.0)"/></g><defs><filter id="shadowFilter-p.2" filterUnits="userSpaceOnUse"><feGaussianBlur in="SourceAlpha" stdDeviation="2.0" result="blur"/><feComponentTransfer in="blur" color-interpolation-filters="sRGB"><feFuncR type="linear" slope="0" intercept="1.0"/><feFuncG type="linear" slope="0" intercept="1.0"/><feFuncB type="linear" slope="0" intercept="1.0"/><feFuncA type="linear" slope="0.5" intercept="0"/></feComponentTransfer></filter></defs><g id="p.2"><path fill="#000000" fill-opacity="0.0" d="m43.036877 8.478672l40.17725 0l0 83.04251l-40.17725 0z" fill-rule="evenodd"/><path fill="#000000" d="m48.24 73.47867l0 -7.53125l8.0625 0l0 -26.468746l-7.671875 0l0 -7.53125l24.531254 0l0 7.53125l-8.0625 0l0 26.468746l8.40625 0l0 7.53125l-25.265629 0z" fill-rule="nonzero"/></g><path fill="#000000" d="m0.007874016 0l34.047245 0l-34.047245 31.874016z" fill-rule="evenodd"/><path fill="#000000" d="m100.0 100.0l-34.04724 0l34.04724 -31.874016z" fill-rule="evenodd"/></g></svg>